<?xml version="1.0" standalone="no"?>
<!DOCTYPE svg PUBLIC "-//W3C//DTD SVG 20010904//EN"
 "http://www.w3.org/TR/2001/REC-SVG-20010904/DTD/svg10.dtd">
<svg version="1.0" xmlns="http://www.w3.org/2000/svg"
 width="500.000000pt" height="500.000000pt" viewBox="0 0 500.000000 500.000000"
 preserveAspectRatio="xMidYMid meet">
<metadata>
Created by potrace 1.14, written by Peter Selinger 2001-2017
</metadata>
<g transform="translate(0.000000,500.000000) scale(0.100000,-0.100000)"
fill="#000000" stroke="none">
<path d="M0 2500 l0 -2500 2500 0 2500 0 0 2500 0 2500 -2500 0 -2500 0 0
-2500z m1960 1378 c0 -13 -14 -18 -67 -23 -38 -4 -82 -11 -99 -16 -32 -10 -75
-50 -90 -84 -5 -11 -11 -554 -15 -1235 -5 -1200 -6 -1216 -27 -1303 -85 -350
-310 -539 -642 -541 -173 -1 -278 47 -295 137 -18 97 62 177 161 162 56 -8 95
-42 162 -140 54 -80 91 -100 157 -85 105 24 167 139 195 360 14 111 13 2564
-1 2615 -25 88 -82 116 -266 130 -70 6 -83 10 -83 25 0 16 29 17 455 16 419
-1 455 -2 455 -18z m1170 1 c0 -14 -14 -18 -77 -24 -149 -13 -201 -40 -222
-117 -9 -32 -11 -293 -9 -1013 3 -907 4 -973 21 -998 38 -59 55 -62 371 -65
188 -2 312 0 355 8 101 18 186 63 261 139 85 86 134 178 170 319 8 31 16 42
30 42 24 0 23 15 5 -185 -8 -88 -15 -206 -15 -263 0 -57 -5 -112 -10 -123 -10
-19 -31 -19 -895 -19 -843 0 -885 1 -885 18 0 15 15 19 104 29 114 12 152 28
182 77 18 30 19 71 22 1011 2 728 0 991 -9 1023 -21 77 -73 104 -221 117 -64
6 -78 10 -78 24 0 16 32 17 450 17 418 0 450 -1 450 -17z"/>
</g>
</svg>
